# xmcd
# 
# Track frame offsets:
#	150
#	12281
#	24308
#	35979
#	47079
#	58824
#	71982
#	84824
#	97837
#	112472
#	121315
#	133536
#
# Disc length: 1960 seconds
#
# Revision: 1
# Processed by: cddbd v1.4PL0 Copyright (c) Steve Scherf et al.
# Submitted via: Audio-CD-Archiv 2.10.438
#
DISCID=a507a60c
DTITLE=The Platters - The Great Pretender
DYEAR=1900
DGENRE=blues
TTITLE0=The Great Pretender
TTITLE1=Only You
TTITLE2=It's Magic
TTITLE3=Ebb Tide
TTITLE4=Summertime
TTITLE5=Once In A While
TTITLE6=My Prayer
TTITLE7=Remember When
TTITLE8=Thanks For The Memory
TTITLE9=You'll Never Know
TTITLE10=Sleepy Lagoon
TTITLE11=September Song
EXTD=
EXTT0=
EXTT1=
EXTT2=
EXTT3=
EXTT4=
EXTT5=
EXTT6=
EXTT7=
EXTT8=
EXTT9=
EXTT10=
EXTT11=
PLAYORDER=
